<svg xmlns="http://www.w3.org/2000/svg" viewBox="0 0 32 32" width="32" height="32">
  <!-- HOC MuseMark simplified favicon -->
  <!-- Outer circle -->
  <circle cx="16" cy="16" r="15.2" fill="none" stroke="#C9A96E" stroke-width="0.7"/>
  <!-- Inner circle -->
  <circle cx="16" cy="16" r="12.8" fill="#1A0820" stroke="#C9A96E" stroke-width="0.5"/>
  <!-- Second inner ring -->
  <circle cx="16" cy="16" r="10.5" fill="none" stroke="#C9A96E" stroke-width="0.4"/>
  <!-- Upward triangle -->
  <polygon points="16,5.5 25.5,21.5 6.5,21.5" fill="none" stroke="#C9A96E" stroke-width="0.7" stroke-linejoin="round"/>
  <!-- Downward triangle -->
  <polygon points="16,26.5 6.5,10.5 25.5,10.5" fill="none" stroke="#C9A96E" stroke-width="0.7" stroke-linejoin="round"/>
  <!-- Vesica / lens shape -->
  <path d="M16,7 C20,10 20,22 16,25 C12,22 12,10 16,7 Z" fill="none" stroke="#C9A96E" stroke-width="0.5"/>
  <!-- Inner lens -->
  <path d="M16,10 C18,12.5 18,19.5 16,22 C14,19.5 14,12.5 16,10 Z" fill="none" stroke="#C9A96E" stroke-width="0.4"/>
  <!-- Centre dot -->
  <circle cx="16" cy="16" r="1" fill="#C9A96E"/>
  <!-- Cardinal tick marks -->
  <circle cx="16" cy="3.8" r="0.6" fill="#C9A96E"/>
  <circle cx="16" cy="28.2" r="0.6" fill="#C9A96E"/>
  <circle cx="3.8" cy="16" r="0.6" fill="#C9A96E"/>
  <circle cx="28.2" cy="16" r="0.6" fill="#C9A96E"/>
</svg>
